<svg width="106" height="45" viewBox="0 0 106 45" fill="none" xmlns="http://www.w3.org/2000/svg">
<path d="M16.62 11.22H19.11C18.67 13.54 17.6 15.45 15.9 16.95C14.22 18.45 12.18 19.2 9.78002 19.2C8.02002 19.2 6.39002 18.77 4.89002 17.91C3.39002 17.05 2.20002 15.89 1.32002 14.43C0.440024 12.95 2.44565e-05 11.34 2.44565e-05 9.59999C2.44565e-05 7.85999 0.440024 6.25999 1.32002 4.79999C2.20002 3.31999 3.39002 2.14999 4.89002 1.28999C6.39002 0.42999 8.02002 -1.0252e-05 9.78002 -1.0252e-05C12.18 -1.0252e-05 14.22 0.74999 15.9 2.24999C17.6 3.74999 18.67 5.65999 19.11 7.97999H16.62C16.26 6.33999 15.45 4.98999 14.19 3.92999C12.93 2.86999 11.46 2.33999 9.78002 2.33999C8.50002 2.33999 7.32002 2.66999 6.24002 3.32999C5.18002 3.96999 4.34002 4.84999 3.72002 5.96999C3.10002 7.06999 2.79002 8.27999 2.79002 9.59999C2.79002 10.92 3.10002 12.14 3.72002 13.26C4.34002 14.36 5.18002 15.24 6.24002 15.9C7.32002 16.54 8.50002 16.86 9.78002 16.86C11.46 16.86 12.93 16.33 14.19 15.27C15.45 14.21 16.26 12.86 16.62 11.22ZM24.0528 17.07C23.7328 18.35 23.5728 18.99 23.5728 18.99H20.9028V0.53999H23.5728V12.87C23.5728 12.87 23.7028 12.42 23.9628 11.52C24.2428 10.6 24.6428 9.65999 25.1628 8.69999C25.6828 7.73999 26.3628 6.92999 27.2028 6.26999C28.0428 5.60999 29.0128 5.35999 30.1128 5.51999C32.2128 5.83999 33.2628 7.94999 33.2628 11.85C33.2628 16.61 33.2628 18.99 33.2628 18.99H30.5628V12.06C30.5628 12.06 30.5428 11.7 30.5028 10.98C30.4828 10.26 30.3728 9.59999 30.1728 8.99999C29.9728 8.39999 29.6528 8.07999 29.2128 8.03999C28.4528 7.95999 27.7328 8.42999 27.0528 9.44999C26.3728 10.45 25.7828 11.65 25.2828 13.05C24.7828 14.43 24.3728 15.77 24.0528 17.07ZM38.3384 16.41C38.6584 16.83 39.2184 17.01 40.0184 16.95C40.5584 16.91 41.0484 16.74 41.4884 16.44C41.9284 16.12 42.4384 15.68 43.0184 15.12C43.4584 14.7 43.8184 14.38 44.0984 14.16C44.3984 13.92 44.6984 13.77 44.9984 13.71C45.8384 13.51 46.4584 13.64 46.8584 14.1C47.2584 14.54 47.4884 15.12 47.5484 15.84C47.6284 16.56 47.6184 17.27 47.5184 17.97C47.4384 18.65 47.3984 18.99 47.3984 18.99H44.8484C44.8484 18.99 44.8984 18.76 44.9984 18.3C45.1184 17.84 45.1684 17.42 45.1484 17.04C45.1284 16.66 44.9784 16.44 44.6984 16.38C44.5384 16.36 44.3684 16.41 44.1884 16.53C44.0284 16.65 43.7884 16.86 43.4684 17.16C42.9484 17.68 42.4284 18.12 41.9084 18.48C41.3884 18.82 40.7484 19.07 39.9884 19.23C39.3884 19.35 38.6984 19.31 37.9184 19.11C37.1384 18.91 36.4584 18.51 35.8784 17.91C35.3184 17.29 35.0484 16.45 35.0684 15.39C35.0884 14.47 35.3384 13.73 35.8184 13.17C36.3184 12.61 36.9384 12.2 37.6784 11.94C38.4184 11.66 39.2884 11.44 40.2884 11.28C40.3284 11.28 40.3884 11.27 40.4684 11.25C41.6484 11.07 42.5484 10.87 43.1684 10.65C43.7884 10.41 44.1884 10.01 44.3684 9.44999C44.5484 8.96999 44.3784 8.49999 43.8584 8.03999C43.3584 7.55999 42.4684 7.37999 41.1884 7.49999C40.2684 7.55999 39.4784 7.76999 38.8184 8.12999C38.1784 8.48999 37.6284 9.05999 37.1684 9.83999L35.4584 8.60999C35.9784 7.72999 36.7384 6.99999 37.7384 6.41999C38.7384 5.83999 39.8884 5.51999 41.1884 5.45999C42.5684 5.37999 43.8684 5.58999 45.0884 6.08999C46.3084 6.58999 46.9684 7.50999 47.0684 8.84999C47.1484 9.76999 46.9584 10.5 46.4984 11.04C46.0584 11.58 45.4884 11.97 44.7884 12.21C44.1084 12.43 43.1984 12.65 42.0584 12.87C40.7584 13.11 39.7784 13.38 39.1184 13.68C38.4584 13.96 38.0784 14.43 37.9784 15.09C37.9184 15.55 38.0384 15.99 38.3384 16.41ZM53.3974 18.99L47.6074 5.75999H50.4574L54.5674 15.9L58.6774 5.75999H61.5274L55.7374 18.99H53.3974ZM65.4087 16.41C65.7287 16.83 66.2887 17.01 67.0887 16.95C67.6287 16.91 68.1187 16.74 68.5587 16.44C68.9987 16.12 69.5087 15.68 70.0887 15.12C70.5287 14.7 70.8887 14.38 71.1687 14.16C71.4687 13.92 71.7687 13.77 72.0687 13.71C72.9087 13.51 73.5287 13.64 73.9287 14.1C74.3287 14.54 74.5587 15.12 74.6187 15.84C74.6987 16.56 74.6887 17.27 74.5887 17.97C74.5087 18.65 74.4687 18.99 74.4687 18.99H71.9187C71.9187 18.99 71.9687 18.76 72.0687 18.3C72.1887 17.84 72.2387 17.42 72.2187 17.04C72.1987 16.66 72.0487 16.44 71.7687 16.38C71.6087 16.36 71.4387 16.41 71.2587 16.53C71.0987 16.65 70.8587 16.86 70.5387 17.16C70.0187 17.68 69.4987 18.12 68.9787 18.48C68.4587 18.82 67.8187 19.07 67.0587 19.23C66.4587 19.35 65.7687 19.31 64.9887 19.11C64.2087 18.91 63.5287 18.51 62.9487 17.91C62.3887 17.29 62.1187 16.45 62.1387 15.39C62.1587 14.47 62.4087 13.73 62.8887 13.17C63.3887 12.61 64.0087 12.2 64.7487 11.94C65.4887 11.66 66.3587 11.44 67.3587 11.28C67.3987 11.28 67.4587 11.27 67.5387 11.25C68.7187 11.07 69.6187 10.87 70.2387 10.65C70.8587 10.41 71.2587 10.01 71.4387 9.44999C71.6187 8.96999 71.4487 8.49999 70.9287 8.03999C70.4287 7.55999 69.5387 7.37999 68.2587 7.49999C67.3387 7.55999 66.5487 7.76999 65.8887 8.12999C65.2487 8.48999 64.6987 9.05999 64.2387 9.83999L62.5287 8.60999C63.0487 7.72999 63.8087 6.99999 64.8087 6.41999C65.8087 5.83999 66.9587 5.51999 68.2587 5.45999C69.6387 5.37999 70.9387 5.58999 72.1587 6.08999C73.3787 6.58999 74.0387 7.50999 74.1387 8.84999C74.2187 9.76999 74.0287 10.5 73.5687 11.04C73.1287 11.58 72.5587 11.97 71.8587 12.21C71.1787 12.43 70.2687 12.65 69.1287 12.87C67.8287 13.11 66.8487 13.38 66.1887 13.68C65.5287 13.96 65.1487 14.43 65.0487 15.09C64.9887 15.55 65.1087 15.99 65.4087 16.41ZM87.3089 18.99V17.37C86.0889 18.55 84.6389 19.19 82.9589 19.29C81.6789 19.37 80.4989 19.1 79.4189 18.48C78.3389 17.86 77.4789 17.01 76.8389 15.93C76.1989 14.83 75.8789 13.66 75.8789 12.42C75.8789 11.16 76.1989 9.95999 76.8389 8.81999C77.4789 7.65999 78.3589 6.77999 79.4789 6.17999C80.5989 5.55999 81.8289 5.34999 83.1689 5.54999C83.9489 5.66999 84.5889 5.90999 85.0889 6.26999C85.6089 6.60999 86.1189 7.04999 86.6189 7.58999C87.0189 8.06999 87.3689 8.32999 87.6689 8.36999C87.9089 8.38999 88.0389 8.20999 88.0589 7.82999C88.0789 7.44999 88.0489 7.01999 87.9689 6.53999C87.8889 6.03999 87.8489 5.78999 87.8489 5.78999H90.4589C90.4589 5.78999 90.4889 6.10999 90.5489 6.74999C90.6289 7.38999 90.6389 8.05999 90.5789 8.75999C90.5389 9.45999 90.3589 10.08 90.0389 10.62C89.7189 11.14 89.2089 11.41 88.5089 11.43C88.1489 11.43 87.8089 11.31 87.4889 11.07C87.1889 10.83 86.8089 10.46 86.3489 9.95999C85.7889 9.37999 85.2889 8.92999 84.8489 8.60999C84.4289 8.26999 83.9289 8.06999 83.3489 8.00999C81.9489 7.82999 80.8189 8.18999 79.9589 9.08999C79.0989 9.96999 78.6689 11.08 78.6689 12.42C78.6689 13.7 79.1089 14.79 79.9889 15.69C80.8889 16.59 81.9489 17.04 83.1689 17.04C84.0689 17.04 84.8989 16.78 85.6589 16.26C86.4389 15.72 86.9889 15.03 87.3089 14.19H89.9789V18.99C89.9789 20.65 89.5689 21.94 88.7489 22.86C87.9489 23.8 86.9889 24.42 85.8689 24.72C84.7689 25.04 83.7089 25.17 82.6889 25.11C81.6889 25.05 80.7989 24.86 80.0189 24.54C79.2389 24.24 78.6089 23.9 78.1289 23.52C77.6489 23.14 77.2789 22.78 77.0189 22.44C76.7589 22.12 76.6289 21.96 76.6289 21.96L78.3689 20.52C78.3689 20.52 78.5489 20.72 78.9089 21.12C79.2889 21.52 79.7989 21.89 80.4389 22.23C81.0789 22.57 81.8289 22.77 82.6889 22.83C83.2489 22.87 83.8889 22.77 84.6089 22.53C85.3289 22.31 85.9589 21.91 86.4989 21.33C87.0389 20.75 87.3089 19.97 87.3089 18.99ZM95.7017 16.41C96.0217 16.83 96.5817 17.01 97.3817 16.95C97.9217 16.91 98.4117 16.74 98.8517 16.44C99.2917 16.12 99.8017 15.68 100.382 15.12C100.822 14.7 101.182 14.38 101.462 14.16C101.762 13.92 102.062 13.77 102.362 13.71C103.202 13.51 103.822 13.64 104.222 14.1C104.622 14.54 104.852 15.12 104.912 15.84C104.992 16.56 104.982 17.27 104.882 17.97C104.802 18.65 104.762 18.99 104.762 18.99H102.212C102.212 18.99 102.262 18.76 102.362 18.3C102.482 17.84 102.532 17.42 102.512 17.04C102.492 16.66 102.342 16.44 102.062 16.38C101.902 16.36 101.732 16.41 101.552 16.53C101.392 16.65 101.152 16.86 100.832 17.16C100.312 17.68 99.7917 18.12 99.2717 18.48C98.7517 18.82 98.1117 19.07 97.3517 19.23C96.7517 19.35 96.0617 19.31 95.2817 19.11C94.5017 18.91 93.8217 18.51 93.2417 17.91C92.6817 17.29 92.4117 16.45 92.4317 15.39C92.4517 14.47 92.7017 13.73 93.1817 13.17C93.6817 12.61 94.3017 12.2 95.0417 11.94C95.7817 11.66 96.6517 11.44 97.6517 11.28C97.6917 11.28 97.7517 11.27 97.8317 11.25C99.0117 11.07 99.9117 10.87 100.532 10.65C101.152 10.41 101.552 10.01 101.732 9.44999C101.912 8.96999 101.742 8.49999 101.222 8.03999C100.722 7.55999 99.8317 7.37999 98.5517 7.49999C97.6317 7.55999 96.8417 7.76999 96.1817 8.12999C95.5417 8.48999 94.9917 9.05999 94.5317 9.83999L92.8217 8.60999C93.3417 7.72999 94.1017 6.99999 95.1017 6.41999C96.1017 5.83999 97.2517 5.51999 98.5517 5.45999C99.9317 5.37999 101.232 5.58999 102.452 6.08999C103.672 6.58999 104.332 7.50999 104.432 8.84999C104.512 9.76999 104.322 10.5 103.862 11.04C103.422 11.58 102.852 11.97 102.152 12.21C101.472 12.43 100.562 12.65 99.4217 12.87C98.1217 13.11 97.1417 13.38 96.4817 13.68C95.8217 13.96 95.4417 14.43 95.3417 15.09C95.2817 15.55 95.4017 15.99 95.7017 16.41ZM45.0134 43.99H42.3134V35.14C42.3134 33.8 42.0534 33.1 41.5334 33.04C40.9134 32.98 40.3034 33.46 39.7034 34.48C39.1034 35.48 38.5734 36.68 38.1134 38.08C37.6534 39.46 37.2634 40.79 36.9434 42.07C36.6234 43.35 36.4634 43.99 36.4634 43.99H33.7934V30.76H36.4634V37.6C36.4634 37.6 36.5834 37.19 36.8234 36.37C37.0834 35.53 37.4334 34.66 37.8734 33.76C38.3334 32.86 38.9134 32.09 39.6134 31.45C40.3134 30.79 41.1234 30.49 42.0434 30.55C43.0434 30.61 43.7834 31.09 44.2634 31.99C44.7634 32.89 45.0134 33.9 45.0134 35.02V37.6C45.3134 36.26 45.9134 34.72 46.8134 32.98C47.7134 31.24 48.9634 30.43 50.5634 30.55C51.5834 30.61 52.3334 31.09 52.8134 31.99C53.2934 32.89 53.5334 33.9 53.5334 35.02V43.99H50.8634V35.14C50.8634 33.8 50.5934 33.1 50.0534 33.04C49.4534 32.98 48.8534 33.45 48.2534 34.45C47.6534 35.45 47.1234 36.64 46.6634 38.02C46.2034 39.4 45.8334 40.62 45.5534 41.68C45.2934 42.72 45.1134 43.49 45.0134 43.99ZM58.1618 36.58H55.3418C55.5418 34.88 56.3018 33.46 57.6218 32.32C58.9618 31.18 60.5418 30.57 62.3618 30.49C64.5418 30.39 66.1618 30.79 67.2218 31.69C68.3018 32.59 68.7118 33.67 68.4518 34.93C68.2718 35.65 67.7418 36.36 66.8618 37.06C65.9818 37.74 65.0018 38.33 63.9218 38.83C62.8418 39.33 61.8218 39.75 60.8618 40.09C59.9018 40.43 59.4218 40.6 59.4218 40.6C60.3218 41.5 61.3818 41.95 62.6018 41.95C63.2618 41.95 63.8518 41.83 64.3718 41.59C64.9118 41.35 65.3518 41.08 65.6918 40.78C66.0318 40.46 66.3018 40.16 66.5018 39.88C66.7018 39.58 66.8018 39.43 66.8018 39.43L68.6018 40.6C68.6018 40.6 68.4518 40.81 68.1518 41.23C67.8518 41.65 67.4418 42.09 66.9218 42.55C66.4018 42.99 65.7518 43.38 64.9718 43.72C64.1918 44.06 63.3218 44.23 62.3618 44.23C61.1618 44.23 60.0418 43.95 59.0018 43.39C57.9618 42.83 57.1118 42.08 56.4518 41.14C56.1518 40.68 55.9118 40.23 55.7318 39.79C55.7318 39.79 56.2918 39.62 57.4118 39.28C58.5518 38.92 59.7418 38.49 60.9818 37.99C62.2218 37.47 63.3018 36.88 64.2218 36.22C65.1618 35.56 65.6318 34.88 65.6318 34.18C65.6318 33.68 65.3218 33.31 64.7018 33.07C64.1018 32.81 63.4018 32.7 62.6018 32.74C61.5018 32.78 60.5318 33.16 59.6918 33.88C58.8518 34.6 58.3418 35.5 58.1618 36.58ZM81.8304 35.59C81.5104 34.75 80.9604 34.07 80.1804 33.55C79.4204 33.01 78.5904 32.74 77.6904 32.74C76.4704 32.74 75.4104 33.19 74.5104 34.09C73.6304 34.99 73.1904 36.08 73.1904 37.36C73.1904 38.7 73.6204 39.82 74.4804 40.72C75.3404 41.6 76.4704 41.95 77.8704 41.77C78.4504 41.71 78.9504 41.52 79.3704 41.2C79.8104 40.86 80.3104 40.4 80.8704 39.82C81.3304 39.32 81.7104 38.95 82.0104 38.71C82.3304 38.47 82.6704 38.36 83.0304 38.38C83.7304 38.38 84.2404 38.65 84.5604 39.19C84.8804 39.71 85.0604 40.32 85.1004 41.02C85.1604 41.72 85.1504 42.39 85.0704 43.03C85.0104 43.67 84.9804 43.99 84.9804 43.99H82.3704C82.3704 43.99 82.4104 43.75 82.4904 43.27C82.5704 42.77 82.6004 42.33 82.5804 41.95C82.5604 41.57 82.4304 41.39 82.1904 41.41C81.8904 41.45 81.5404 41.71 81.1404 42.19C80.6404 42.73 80.1304 43.18 79.6104 43.54C79.1104 43.88 78.4704 44.11 77.6904 44.23C76.3504 44.43 75.1204 44.23 74.0004 43.63C72.8804 43.01 72.0004 42.13 71.3604 40.99C70.7204 39.83 70.4004 38.62 70.4004 37.36C70.4004 36.12 70.7204 34.96 71.3604 33.88C72.0004 32.78 72.8604 31.92 73.9404 31.3C75.0204 30.68 76.2004 30.41 77.4804 30.49C79.1604 30.59 80.6104 31.23 81.8304 32.41V25.54H84.5004V35.59H81.8304ZM87.7402 28.33C88.0802 28.63 88.4802 28.78 88.9402 28.78C89.4002 28.78 89.7902 28.63 90.1102 28.33C90.4502 28.01 90.6202 27.62 90.6202 27.16C90.6202 26.7 90.4502 26.31 90.1102 25.99C89.7902 25.67 89.4002 25.51 88.9402 25.51C88.4802 25.51 88.0802 25.67 87.7402 25.99C87.4202 26.31 87.2602 26.7 87.2602 27.16C87.2602 27.62 87.4202 28.01 87.7402 28.33ZM87.6502 43.99V30.76H90.3502V43.99H87.6502ZM95.7017 41.41C96.0217 41.83 96.5817 42.01 97.3817 41.95C97.9217 41.91 98.4117 41.74 98.8517 41.44C99.2917 41.12 99.8017 40.68 100.382 40.12C100.822 39.7 101.182 39.38 101.462 39.16C101.762 38.92 102.062 38.77 102.362 38.71C103.202 38.51 103.822 38.64 104.222 39.1C104.622 39.54 104.852 40.12 104.912 40.84C104.992 41.56 104.982 42.27 104.882 42.97C104.802 43.65 104.762 43.99 104.762 43.99H102.212C102.212 43.99 102.262 43.76 102.362 43.3C102.482 42.84 102.532 42.42 102.512 42.04C102.492 41.66 102.342 41.44 102.062 41.38C101.902 41.36 101.732 41.41 101.552 41.53C101.392 41.65 101.152 41.86 100.832 42.16C100.312 42.68 99.7917 43.12 99.2717 43.48C98.7517 43.82 98.1117 44.07 97.3517 44.23C96.7517 44.35 96.0617 44.31 95.2817 44.11C94.5017 43.91 93.8217 43.51 93.2417 42.91C92.6817 42.29 92.4117 41.45 92.4317 40.39C92.4517 39.47 92.7017 38.73 93.1817 38.17C93.6817 37.61 94.3017 37.2 95.0417 36.94C95.7817 36.66 96.6517 36.44 97.6517 36.28C97.6917 36.28 97.7517 36.27 97.8317 36.25C99.0117 36.07 99.9117 35.87 100.532 35.65C101.152 35.41 101.552 35.01 101.732 34.45C101.912 33.97 101.742 33.5 101.222 33.04C100.722 32.56 99.8317 32.38 98.5517 32.5C97.6317 32.56 96.8417 32.77 96.1817 33.13C95.5417 33.49 94.9917 34.06 94.5317 34.84L92.8217 33.61C93.3417 32.73 94.1017 32 95.1017 31.42C96.1017 30.84 97.2517 30.52 98.5517 30.46C99.9317 30.38 101.232 30.59 102.452 31.09C103.672 31.59 104.332 32.51 104.432 33.85C104.512 34.77 104.322 35.5 103.862 36.04C103.422 36.58 102.852 36.97 102.152 37.21C101.472 37.43 100.562 37.65 99.4217 37.87C98.1217 38.11 97.1417 38.38 96.4817 38.68C95.8217 38.96 95.4417 39.43 95.3417 40.09C95.2817 40.55 95.4017 40.99 95.7017 41.41Z" fill="white"/>
</svg>
