<svg width="105" height="45" viewBox="0 0 105 45" fill="none" xmlns="http://www.w3.org/2000/svg">
<path d="M19.11 11.22C18.69 13.54 17.62 15.45 15.9 16.95C14.2 18.45 12.16 19.2 9.78 19.2C7.1 19.2 4.8 18.27 2.88 16.41C0.960002 14.53 1.56835e-06 12.26 1.56835e-06 9.6C1.56835e-06 6.94 0.960002 4.68 2.88 2.82C4.8 0.939997 7.1 -2.6226e-06 9.78 -2.6226e-06C12.16 -2.6226e-06 14.2 0.749997 15.9 2.25C17.62 3.75 18.69 5.66 19.11 7.98H16.62C16.28 6.34 15.47 4.99 14.19 3.93C12.93 2.87 11.46 2.34 9.78 2.34C7.82 2.34 6.16 3.05 4.8 4.47C3.46 5.87 2.79 7.58 2.79 9.6C2.79 11.6 3.46 13.31 4.8 14.73C6.16 16.15 7.82 16.86 9.78 16.86C11.46 16.86 12.93 16.33 14.19 15.27C15.47 14.21 16.28 12.86 16.62 11.22H19.11ZM23.5727 18.99H20.9027V0.539998H23.5727V12.87L23.7827 12.03C23.9227 11.49 24.1627 10.84 24.5027 10.08C24.8427 9.3 25.2427 8.54 25.7027 7.8C26.1827 7.06 26.8127 6.46 27.5927 6C28.3727 5.54 29.2127 5.38 30.1127 5.52C32.2127 5.84 33.2627 7.95 33.2627 11.85V18.99H30.5627V12.06V11.07C30.5627 10.43 30.4427 9.78 30.2027 9.12C29.9827 8.44 29.6527 8.08 29.2127 8.04C28.7727 8 28.3227 8.17 27.8627 8.55C27.4027 8.93 26.9927 9.43 26.6327 10.05C26.2927 10.65 25.9527 11.38 25.6127 12.24C25.2727 13.08 24.9827 13.85 24.7427 14.55C24.5227 15.25 24.3127 15.99 24.1127 16.77C23.9127 17.55 23.7827 18.08 23.7227 18.36C23.6627 18.62 23.6127 18.83 23.5727 18.99ZM40.0184 16.95C40.4984 16.91 40.9784 16.73 41.4584 16.41C41.9584 16.09 42.3784 15.75 42.7184 15.39C43.0584 15.03 43.4384 14.68 43.8584 14.34C44.2784 14 44.6584 13.79 44.9984 13.71C45.4984 13.59 45.9184 13.6 46.2584 13.74C46.6184 13.88 46.8884 14.09 47.0684 14.37C47.2484 14.65 47.3784 15.01 47.4584 15.45C47.5584 15.87 47.6084 16.27 47.6084 16.65C47.6084 17.01 47.5884 17.4 47.5484 17.82C47.5084 18.22 47.4784 18.5 47.4584 18.66C47.4384 18.8 47.4184 18.91 47.3984 18.99H44.8484L45.0284 18.39C45.1284 17.97 45.1584 17.55 45.1184 17.13C45.0984 16.69 44.9584 16.44 44.6984 16.38C44.4984 16.34 44.2584 16.44 43.9784 16.68C43.6984 16.92 43.4084 17.2 43.1084 17.52C42.8284 17.84 42.3984 18.18 41.8184 18.54C41.2584 18.88 40.6484 19.11 39.9884 19.23C39.3884 19.35 38.7284 19.33 38.0084 19.17C37.2884 19.01 36.6084 18.61 35.9684 17.97C35.3484 17.31 35.0484 16.45 35.0684 15.39C35.0884 14.83 35.1984 14.33 35.3984 13.89C35.6184 13.45 35.8884 13.09 36.2084 12.81C36.5284 12.53 36.9284 12.28 37.4084 12.06C37.8884 11.84 38.3484 11.68 38.7884 11.58C39.2284 11.46 39.7284 11.36 40.2884 11.28C40.9684 11.18 41.4384 11.1 41.6984 11.04C41.9784 10.98 42.3484 10.88 42.8084 10.74C43.2884 10.6 43.6384 10.43 43.8584 10.23C44.0984 10.01 44.2684 9.75 44.3684 9.45C44.4884 9.23 44.4984 9 44.3984 8.76C44.2984 8.5 44.1484 8.27 43.9484 8.07C43.7484 7.85 43.4084 7.69 42.9284 7.59C42.4484 7.47 41.8684 7.44 41.1884 7.5C39.3484 7.66 38.0084 8.44 37.1684 9.84L35.4584 8.61C35.9784 7.71 36.7384 6.98 37.7384 6.42C38.7384 5.84 39.8884 5.52 41.1884 5.46C41.7884 5.42 42.3784 5.44 42.9584 5.52C43.5584 5.6 44.1684 5.75 44.7884 5.97C45.4284 6.19 45.9484 6.55 46.3484 7.05C46.7684 7.53 47.0084 8.13 47.0684 8.85C47.1484 9.85 46.9084 10.64 46.3484 11.22C45.7884 11.8 45.0684 12.2 44.1884 12.42C43.3284 12.62 42.4484 12.8 41.5484 12.96C40.6484 13.1 39.8484 13.34 39.1484 13.68C38.4684 14 38.0784 14.47 37.9784 15.09C37.9184 15.55 38.0384 15.99 38.3384 16.41C38.6584 16.83 39.2184 17.01 40.0184 16.95ZM55.7374 18.99H53.3974L47.6074 5.76H50.4574L54.5674 15.9L58.6774 5.76H61.5274L55.7374 18.99ZM67.0887 16.95C67.5687 16.91 68.0487 16.73 68.5287 16.41C69.0287 16.09 69.4487 15.75 69.7887 15.39C70.1287 15.03 70.5087 14.68 70.9287 14.34C71.3487 14 71.7287 13.79 72.0687 13.71C72.5687 13.59 72.9887 13.6 73.3287 13.74C73.6887 13.88 73.9587 14.09 74.1387 14.37C74.3187 14.65 74.4487 15.01 74.5287 15.45C74.6287 15.87 74.6787 16.27 74.6787 16.65C74.6787 17.01 74.6587 17.4 74.6187 17.82C74.5787 18.22 74.5487 18.5 74.5287 18.66C74.5087 18.8 74.4887 18.91 74.4687 18.99H71.9187L72.0987 18.39C72.1987 17.97 72.2287 17.55 72.1887 17.13C72.1687 16.69 72.0287 16.44 71.7687 16.38C71.5687 16.34 71.3287 16.44 71.0487 16.68C70.7687 16.92 70.4787 17.2 70.1787 17.52C69.8987 17.84 69.4687 18.18 68.8887 18.54C68.3287 18.88 67.7187 19.11 67.0587 19.23C66.4587 19.35 65.7987 19.33 65.0787 19.17C64.3587 19.01 63.6787 18.61 63.0387 17.97C62.4187 17.31 62.1187 16.45 62.1387 15.39C62.1587 14.83 62.2687 14.33 62.4687 13.89C62.6887 13.45 62.9587 13.09 63.2787 12.81C63.5987 12.53 63.9987 12.28 64.4787 12.06C64.9587 11.84 65.4187 11.68 65.8587 11.58C66.2987 11.46 66.7987 11.36 67.3587 11.28C68.0387 11.18 68.5087 11.1 68.7687 11.04C69.0487 10.98 69.4187 10.88 69.8787 10.74C70.3587 10.6 70.7087 10.43 70.9287 10.23C71.1687 10.01 71.3387 9.75 71.4387 9.45C71.5587 9.23 71.5687 9 71.4687 8.76C71.3687 8.5 71.2187 8.27 71.0187 8.07C70.8187 7.85 70.4787 7.69 69.9987 7.59C69.5187 7.47 68.9387 7.44 68.2587 7.5C66.4187 7.66 65.0787 8.44 64.2387 9.84L62.5287 8.61C63.0487 7.71 63.8087 6.98 64.8087 6.42C65.8087 5.84 66.9587 5.52 68.2587 5.46C68.8587 5.42 69.4487 5.44 70.0287 5.52C70.6287 5.6 71.2387 5.75 71.8587 5.97C72.4987 6.19 73.0187 6.55 73.4187 7.05C73.8387 7.53 74.0787 8.13 74.1387 8.85C74.2187 9.85 73.9787 10.64 73.4187 11.22C72.8587 11.8 72.1387 12.2 71.2587 12.42C70.3987 12.62 69.5187 12.8 68.6187 12.96C67.7187 13.1 66.9187 13.34 66.2187 13.68C65.5387 14 65.1487 14.47 65.0487 15.09C64.9887 15.55 65.1087 15.99 65.4087 16.41C65.7287 16.83 66.2887 17.01 67.0887 16.95ZM87.3089 17.37C86.0689 18.55 84.6189 19.19 82.9589 19.29C81.0389 19.41 79.3789 18.78 77.9789 17.4C76.5789 16 75.8789 14.34 75.8789 12.42C75.8789 10.44 76.5889 8.72 78.0089 7.26C79.4289 5.8 81.1489 5.23 83.1689 5.55C83.9889 5.69 84.7089 5.99 85.3289 6.45C85.9489 6.91 86.4389 7.35 86.7989 7.77C87.1589 8.17 87.4489 8.37 87.6689 8.37C87.7889 8.37 87.8789 8.32 87.9389 8.22C88.0189 8.1 88.0589 7.94 88.0589 7.74C88.0789 7.52 88.0789 7.31 88.0589 7.11C88.0589 6.91 88.0289 6.7 87.9689 6.48C87.9289 6.24 87.8989 6.08 87.8789 6C87.8789 5.9 87.8689 5.83 87.8489 5.79H90.4589L90.5489 6.36C90.6089 6.74 90.6389 7.21 90.6389 7.77C90.6389 8.31 90.5889 8.86 90.4889 9.42C90.4089 9.96 90.1989 10.43 89.8589 10.83C89.5189 11.21 89.0689 11.41 88.5089 11.43C88.0489 11.43 87.5589 11.17 87.0389 10.65C86.5189 10.13 85.9489 9.58 85.3289 9C84.7089 8.42 84.0489 8.09 83.3489 8.01C81.9489 7.83 80.8189 8.19 79.9589 9.09C79.0989 9.97 78.6689 11.08 78.6689 12.42C78.6689 13.68 79.1089 14.77 79.9889 15.69C80.8889 16.59 81.9489 17.04 83.1689 17.04C84.0689 17.04 84.8989 16.78 85.6589 16.26C86.4189 15.72 86.9689 15.03 87.3089 14.19H89.9789V18.99C89.9789 20.27 89.7189 21.35 89.1989 22.23C88.6989 23.13 88.0489 23.77 87.2489 24.15C86.4489 24.55 85.6689 24.82 84.9089 24.96C84.1489 25.12 83.4089 25.17 82.6889 25.11C81.8689 25.05 81.0989 24.9 80.3789 24.66C79.6589 24.42 79.0889 24.16 78.6689 23.88C78.2489 23.62 77.8589 23.32 77.4989 22.98C77.1589 22.64 76.9389 22.4 76.8389 22.26C76.7389 22.14 76.6689 22.04 76.6289 21.96L78.3689 20.52L78.5189 20.73C78.6389 20.89 78.8189 21.07 79.0589 21.27C79.3189 21.49 79.6089 21.71 79.9289 21.93C80.2489 22.15 80.6489 22.34 81.1289 22.5C81.6289 22.68 82.1489 22.79 82.6889 22.83C83.2489 22.87 83.8589 22.79 84.5189 22.59C85.1789 22.41 85.8089 22.01 86.4089 21.39C87.0089 20.77 87.3089 19.97 87.3089 18.99V17.37ZM97.3816 16.95C97.8616 16.91 98.3416 16.73 98.8216 16.41C99.3216 16.09 99.7416 15.75 100.082 15.39C100.422 15.03 100.802 14.68 101.222 14.34C101.642 14 102.022 13.79 102.362 13.71C102.862 13.59 103.282 13.6 103.622 13.74C103.982 13.88 104.252 14.09 104.432 14.37C104.612 14.65 104.742 15.01 104.822 15.45C104.922 15.87 104.972 16.27 104.972 16.65C104.972 17.01 104.952 17.4 104.912 17.82C104.872 18.22 104.842 18.5 104.822 18.66C104.802 18.8 104.782 18.91 104.762 18.99H102.212L102.392 18.39C102.492 17.97 102.522 17.55 102.482 17.13C102.462 16.69 102.322 16.44 102.062 16.38C101.862 16.34 101.622 16.44 101.342 16.68C101.062 16.92 100.772 17.2 100.472 17.52C100.192 17.84 99.7616 18.18 99.1816 18.54C98.6216 18.88 98.0116 19.11 97.3516 19.23C96.7516 19.35 96.0916 19.33 95.3716 19.17C94.6516 19.01 93.9716 18.61 93.3316 17.97C92.7116 17.31 92.4116 16.45 92.4316 15.39C92.4516 14.83 92.5616 14.33 92.7616 13.89C92.9816 13.45 93.2516 13.09 93.5716 12.81C93.8916 12.53 94.2916 12.28 94.7716 12.06C95.2516 11.84 95.7116 11.68 96.1516 11.58C96.5916 11.46 97.0916 11.36 97.6516 11.28C98.3316 11.18 98.8016 11.1 99.0616 11.04C99.3416 10.98 99.7116 10.88 100.172 10.74C100.652 10.6 101.002 10.43 101.222 10.23C101.462 10.01 101.632 9.75 101.732 9.45C101.852 9.23 101.862 9 101.762 8.76C101.662 8.5 101.512 8.27 101.312 8.07C101.112 7.85 100.772 7.69 100.292 7.59C99.8116 7.47 99.2316 7.44 98.5516 7.5C96.7116 7.66 95.3716 8.44 94.5316 9.84L92.8216 8.61C93.3416 7.71 94.1016 6.98 95.1016 6.42C96.1016 5.84 97.2516 5.52 98.5516 5.46C99.1516 5.42 99.7416 5.44 100.322 5.52C100.922 5.6 101.532 5.75 102.152 5.97C102.792 6.19 103.312 6.55 103.712 7.05C104.132 7.53 104.372 8.13 104.432 8.85C104.512 9.85 104.272 10.64 103.712 11.22C103.152 11.8 102.432 12.2 101.552 12.42C100.692 12.62 99.8116 12.8 98.9116 12.96C98.0116 13.1 97.2116 13.34 96.5116 13.68C95.8316 14 95.4416 14.47 95.3416 15.09C95.2816 15.55 95.4016 15.99 95.7016 16.41C96.0216 16.83 96.5816 17.01 97.3816 16.95ZM9.12 43.99V35.14C9.12 33.78 8.86 33.08 8.34 33.04C8.06 33.02 7.77 33.13 7.47 33.37C7.17 33.59 6.89 33.9 6.63 34.3C6.37 34.7 6.1 35.19 5.82 35.77C5.56 36.35 5.32 36.93 5.1 37.51C4.9 38.07 4.7 38.68 4.5 39.34C4.3 40 4.13 40.58 3.99 41.08C3.85 41.58 3.72 42.09 3.6 42.61C3.48 43.11 3.4 43.44 3.36 43.6C3.32 43.76 3.29 43.89 3.27 43.99H0.600002V30.76H3.27V37.6L3.48 36.85C3.6 36.35 3.81 35.75 4.11 35.05C4.41 34.33 4.76 33.62 5.16 32.92C5.58 32.22 6.11 31.64 6.75 31.18C7.41 30.7 8.11 30.49 8.85 30.55C9.87 30.61 10.62 31.09 11.1 31.99C11.58 32.89 11.82 33.9 11.82 35.02V37.6C11.88 37.28 12.01 36.82 12.21 36.22C12.43 35.6 12.75 34.81 13.17 33.85C13.61 32.87 14.2 32.06 14.94 31.42C15.68 30.78 16.49 30.49 17.37 30.55C18.39 30.61 19.14 31.09 19.62 31.99C20.1 32.89 20.34 33.9 20.34 35.02V43.99H17.67V35.14C17.67 33.78 17.4 33.08 16.86 33.04C16.08 32.96 15.27 33.85 14.43 35.71C13.59 37.55 12.94 39.34 12.48 41.08C12.04 42.8 11.82 43.77 11.82 43.99H9.12ZM22.1484 36.58C22.3484 34.88 23.1084 33.46 24.4284 32.32C25.7684 31.18 27.3484 30.57 29.1684 30.49C31.3484 30.41 32.9784 30.81 34.0584 31.69C35.1384 32.57 35.5384 33.65 35.2584 34.93C35.1184 35.53 34.6984 36.14 33.9984 36.76C33.2984 37.38 32.5584 37.9 31.7784 38.32C31.0184 38.72 30.1484 39.12 29.1684 39.52C28.1884 39.92 27.5084 40.19 27.1284 40.33C26.7484 40.45 26.4484 40.54 26.2284 40.6C27.1284 41.5 28.1884 41.95 29.4084 41.95C29.9484 41.95 30.4584 41.86 30.9384 41.68C31.4384 41.5 31.8384 41.3 32.1384 41.08C32.4384 40.86 32.7084 40.61 32.9484 40.33C33.2084 40.03 33.3684 39.82 33.4284 39.7C33.5084 39.58 33.5684 39.49 33.6084 39.43L35.4084 40.6L35.1684 40.99C35.0084 41.23 34.7484 41.53 34.3884 41.89C34.0484 42.23 33.6484 42.58 33.1884 42.94C32.7284 43.3 32.1384 43.61 31.4184 43.87C30.6984 44.11 29.9484 44.23 29.1684 44.23C27.9684 44.23 26.8484 43.95 25.8084 43.39C24.7684 42.83 23.9184 42.08 23.2584 41.14C22.9584 40.66 22.7184 40.21 22.5384 39.79L23.5584 39.49C24.2384 39.31 25.0584 39.04 26.0184 38.68C26.9984 38.3 27.9684 37.89 28.9284 37.45C29.9084 37.01 30.7384 36.5 31.4184 35.92C32.0984 35.32 32.4384 34.74 32.4384 34.18C32.4384 33.68 32.1384 33.31 31.5384 33.07C30.9384 32.81 30.2284 32.7 29.4084 32.74C28.3084 32.78 27.3384 33.16 26.4984 33.88C25.6584 34.6 25.1484 35.5 24.9684 36.58H22.1484ZM51.307 35.59H48.637C48.297 34.75 47.747 34.07 46.987 33.55C46.227 33.01 45.397 32.74 44.497 32.74C43.277 32.74 42.217 33.2 41.317 34.12C40.437 35.02 39.997 36.1 39.997 37.36C39.997 38.7 40.427 39.82 41.287 40.72C42.147 41.6 43.277 41.95 44.677 41.77C45.217 41.71 45.747 41.49 46.267 41.11C46.787 40.73 47.207 40.34 47.527 39.94C47.867 39.54 48.237 39.18 48.637 38.86C49.057 38.54 49.457 38.38 49.837 38.38C50.397 38.38 50.847 38.58 51.187 38.98C51.527 39.36 51.737 39.83 51.817 40.39C51.917 40.93 51.967 41.48 51.967 42.04C51.967 42.58 51.937 43.04 51.877 43.42L51.787 43.99H49.177C49.197 43.95 49.207 43.89 49.207 43.81C49.227 43.71 49.257 43.55 49.297 43.33C49.357 43.09 49.387 42.87 49.387 42.67C49.407 42.47 49.407 42.27 49.387 42.07C49.387 41.85 49.347 41.69 49.267 41.59C49.207 41.47 49.117 41.41 48.997 41.41C48.777 41.41 48.487 41.62 48.127 42.04C47.767 42.44 47.277 42.87 46.657 43.33C46.037 43.79 45.317 44.09 44.497 44.23C42.477 44.55 40.757 43.98 39.337 42.52C37.917 41.06 37.207 39.34 37.207 37.36C37.207 35.44 37.907 33.79 39.307 32.41C40.707 31.01 42.367 30.37 44.287 30.49C45.947 30.59 47.397 31.23 48.637 32.41V25.54H51.307V35.59ZM55.7468 28.78C56.2068 28.78 56.5968 28.62 56.9168 28.3C57.2568 27.98 57.4268 27.6 57.4268 27.16C57.4268 26.7 57.2568 26.31 56.9168 25.99C56.5968 25.67 56.2068 25.51 55.7468 25.51C55.2868 25.51 54.8868 25.67 54.5468 25.99C54.2268 26.31 54.0668 26.7 54.0668 27.16C54.0668 27.6 54.2268 27.98 54.5468 28.3C54.8868 28.62 55.2868 28.78 55.7468 28.78ZM54.4568 30.76H57.1568V43.99H54.4568V30.76ZM64.1883 41.95C64.6683 41.91 65.1483 41.73 65.6283 41.41C66.1283 41.09 66.5483 40.75 66.8883 40.39C67.2283 40.03 67.6083 39.68 68.0283 39.34C68.4483 39 68.8283 38.79 69.1683 38.71C69.6683 38.59 70.0883 38.6 70.4283 38.74C70.7883 38.88 71.0583 39.09 71.2383 39.37C71.4183 39.65 71.5483 40.01 71.6283 40.45C71.7283 40.87 71.7783 41.27 71.7783 41.65C71.7783 42.01 71.7583 42.4 71.7183 42.82C71.6783 43.22 71.6483 43.5 71.6283 43.66C71.6083 43.8 71.5883 43.91 71.5683 43.99H69.0183L69.1983 43.39C69.2983 42.97 69.3283 42.55 69.2883 42.13C69.2683 41.69 69.1283 41.44 68.8683 41.38C68.6683 41.34 68.4283 41.44 68.1483 41.68C67.8683 41.92 67.5783 42.2 67.2783 42.52C66.9983 42.84 66.5683 43.18 65.9883 43.54C65.4283 43.88 64.8183 44.11 64.1583 44.23C63.5583 44.35 62.8983 44.33 62.1783 44.17C61.4583 44.01 60.7783 43.61 60.1383 42.97C59.5183 42.31 59.2183 41.45 59.2383 40.39C59.2583 39.83 59.3683 39.33 59.5683 38.89C59.7883 38.45 60.0583 38.09 60.3783 37.81C60.6983 37.53 61.0983 37.28 61.5783 37.06C62.0583 36.84 62.5183 36.68 62.9583 36.58C63.3983 36.46 63.8983 36.36 64.4583 36.28C65.1383 36.18 65.6083 36.1 65.8683 36.04C66.1483 35.98 66.5183 35.88 66.9783 35.74C67.4583 35.6 67.8083 35.43 68.0283 35.23C68.2683 35.01 68.4383 34.75 68.5383 34.45C68.6583 34.23 68.6683 34 68.5683 33.76C68.4683 33.5 68.3183 33.27 68.1183 33.07C67.9183 32.85 67.5783 32.69 67.0983 32.59C66.6183 32.47 66.0383 32.44 65.3583 32.5C63.5183 32.66 62.1783 33.44 61.3383 34.84L59.6283 33.61C60.1483 32.71 60.9083 31.98 61.9083 31.42C62.9083 30.84 64.0583 30.52 65.3583 30.46C65.9583 30.42 66.5483 30.44 67.1283 30.52C67.7283 30.6 68.3383 30.75 68.9583 30.97C69.5983 31.19 70.1183 31.55 70.5183 32.05C70.9383 32.53 71.1783 33.13 71.2383 33.85C71.3183 34.85 71.0783 35.64 70.5183 36.22C69.9583 36.8 69.2383 37.2 68.3583 37.42C67.4983 37.62 66.6183 37.8 65.7183 37.96C64.8183 38.1 64.0183 38.34 63.3183 38.68C62.6383 39 62.2483 39.47 62.1483 40.09C62.0883 40.55 62.2083 40.99 62.5083 41.41C62.8283 41.83 63.3883 42.01 64.1883 41.95Z" fill="#54016E"/>
</svg>
